<svg width="24" height="19" viewBox="0 0 24 19" fill="none" xmlns="http://www.w3.org/2000/svg">
<g clip-path="url(#clip0_61385:198)">
<path d="M11.9201 0.762665C5.33788 0.762665 0 4.77359 0 9.72143C0 13.6788 3.41553 17.0361 8.15435 18.2218C8.75043 18.3043 8.968 18.0277 8.968 17.7901C8.968 17.5771 8.95757 17.0138 8.95161 16.2665C5.63592 16.8075 4.93553 15.0652 4.93553 15.0652C4.39459 14.0302 3.61224 13.7547 3.61224 13.7547C2.52886 13.1992 3.69271 13.2104 3.69271 13.2104C4.88933 13.2739 5.5182 14.1339 5.5182 14.1339C6.5822 15.5025 8.30933 15.1076 8.98886 14.8779C9.09616 14.299 9.40463 13.9041 9.74588 13.6799C7.09929 13.4535 4.31561 12.685 4.31561 9.25297C4.31561 8.27478 4.78055 7.47505 5.54353 6.8482C5.41984 6.62178 5.01153 5.71051 5.65976 4.47801C5.65976 4.47801 6.66118 4.23709 8.9382 5.39597C9.88894 5.19743 10.9082 5.09816 11.9231 5.09482C12.9349 5.09928 13.9557 5.19743 14.9079 5.39709C17.1835 4.2382 18.1834 4.47913 18.1834 4.47913C18.8331 5.71274 18.4248 6.6229 18.3026 6.84932C19.0671 7.47616 19.5275 8.2759 19.5275 9.25409C19.5275 12.695 16.7409 13.4524 14.0853 13.6744C14.513 13.951 14.8945 14.4975 14.8945 15.3329C14.8945 16.5309 14.8796 17.4968 14.8796 17.7901C14.8796 18.0299 15.0942 18.3088 15.6992 18.2207C20.4306 17.0339 23.8431 13.6777 23.8431 9.72143C23.8431 4.77359 18.5053 0.762665 11.9201 0.762665Z" fill="#C4C4CC"/>
</g>
<defs>
<clipPath id="clip0_61385:198">
<rect width="23.8431" height="17.8462" fill="white" transform="translate(0 0.576935)"/>
</clipPath>
</defs>
</svg>
